<?xml version="1.0" encoding="UTF-8" standalone="no"?>
<!-- Created with Inkscape (http://www.inkscape.org/) -->

<svg
   version="1.1"
   id="svg5252"
   width="687.10382"
   height="502.49594"
   viewBox="0 0 687.10382 502.49594"
   xmlns="http://www.w3.org/2000/svg"
   xmlns:svg="http://www.w3.org/2000/svg">
  <defs
     id="defs5256">
    <clipPath
       clipPathUnits="userSpaceOnUse"
       id="clipPath5272">
      <path
         d="M 43.871875,84.97895 H 508.12787 v 269.568 H 43.871875 Z"
         id="path5270" />
    </clipPath>
    <clipPath
       clipPathUnits="userSpaceOnUse"
       id="clipPath5282">
      <path
         d="M 43.871875,84.97895 H 508.12787 v 269.568 H 43.871875 Z"
         id="path5280" />
    </clipPath>
    <clipPath
       clipPathUnits="userSpaceOnUse"
       id="clipPath5292">
      <path
         d="M 43.871875,84.97895 H 508.12787 v 269.568 H 43.871875 Z"
         id="path5290" />
    </clipPath>
    <clipPath
       clipPathUnits="userSpaceOnUse"
       id="clipPath5302">
      <path
         d="M 43.871875,84.97895 H 508.12787 v 269.568 H 43.871875 Z"
         id="path5300" />
    </clipPath>
    <clipPath
       clipPathUnits="userSpaceOnUse"
       id="clipPath5322">
      <path
         d="M 43.871875,84.97895 H 508.12787 v 269.568 H 43.871875 Z"
         id="path5320" />
    </clipPath>
    <clipPath
       clipPathUnits="userSpaceOnUse"
       id="clipPath5342">
      <path
         d="M 43.871875,84.97895 H 508.12787 v 269.568 H 43.871875 Z"
         id="path5340" />
    </clipPath>
    <clipPath
       clipPathUnits="userSpaceOnUse"
       id="clipPath5362">
      <path
         d="M 43.871875,84.97895 H 508.12787 v 269.568 H 43.871875 Z"
         id="path5360" />
    </clipPath>
    <clipPath
       clipPathUnits="userSpaceOnUse"
       id="clipPath5382">
      <path
         d="M 43.871875,84.97895 H 508.12787 v 269.568 H 43.871875 Z"
         id="path5380" />
    </clipPath>
    <clipPath
       clipPathUnits="userSpaceOnUse"
       id="clipPath5402">
      <path
         d="M 43.871875,84.97895 H 508.12787 v 269.568 H 43.871875 Z"
         id="path5400" />
    </clipPath>
    <clipPath
       clipPathUnits="userSpaceOnUse"
       id="clipPath5422">
      <path
         d="M 43.871875,84.97895 H 508.12787 v 269.568 H 43.871875 Z"
         id="path5420" />
    </clipPath>
    <clipPath
       clipPathUnits="userSpaceOnUse"
       id="clipPath5442">
      <path
         d="M 43.871875,84.97895 H 508.12787 v 269.568 H 43.871875 Z"
         id="path5440" />
    </clipPath>
    <clipPath
       clipPathUnits="userSpaceOnUse"
       id="clipPath5478">
      <path
         d="M 43.871875,84.97895 H 508.12787 v 269.568 H 43.871875 Z"
         id="path5476" />
    </clipPath>
    <clipPath
       clipPathUnits="userSpaceOnUse"
       id="clipPath5498">
      <path
         d="M 43.871875,84.97895 H 508.12787 v 269.568 H 43.871875 Z"
         id="path5496" />
    </clipPath>
    <clipPath
       clipPathUnits="userSpaceOnUse"
       id="clipPath5518">
      <path
         d="M 43.871875,84.97895 H 508.12787 v 269.568 H 43.871875 Z"
         id="path5516" />
    </clipPath>
    <clipPath
       clipPathUnits="userSpaceOnUse"
       id="clipPath5538">
      <path
         d="M 43.871875,84.97895 H 508.12787 v 269.568 H 43.871875 Z"
         id="path5536" />
    </clipPath>
    <clipPath
       clipPathUnits="userSpaceOnUse"
       id="clipPath5558">
      <path
         d="M 43.871875,84.97895 H 508.12787 v 269.568 H 43.871875 Z"
         id="path5556" />
    </clipPath>
    <clipPath
       clipPathUnits="userSpaceOnUse"
       id="clipPath5578">
      <path
         d="M 43.871875,84.97895 H 508.12787 v 269.568 H 43.871875 Z"
         id="path5576" />
    </clipPath>
    <clipPath
       clipPathUnits="userSpaceOnUse"
       id="clipPath5604">
      <path
         d="M 43.871875,84.97895 H 508.12787 v 269.568 H 43.871875 Z"
         id="path5602" />
    </clipPath>
    <clipPath
       clipPathUnits="userSpaceOnUse"
       id="clipPath5614">
      <path
         d="M 43.871875,84.97895 H 508.12787 v 269.568 H 43.871875 Z"
         id="path5612" />
    </clipPath>
    <clipPath
       clipPathUnits="userSpaceOnUse"
       id="clipPath5624">
      <path
         d="M 43.871875,84.97895 H 508.12787 v 269.568 H 43.871875 Z"
         id="path5622" />
    </clipPath>
    <clipPath
       clipPathUnits="userSpaceOnUse"
       id="clipPath5634">
      <path
         d="M 43.871875,84.97895 H 508.12787 v 269.568 H 43.871875 Z"
         id="path5632" />
    </clipPath>
    <clipPath
       clipPathUnits="userSpaceOnUse"
       id="clipPath5644">
      <path
         d="M 43.871875,84.97895 H 508.12787 v 269.568 H 43.871875 Z"
         id="path5642" />
    </clipPath>
  </defs>
  <g
     id="g5260"
     transform="matrix(1.3333333,0,0,-1.3333333,0,502.49593)">
    <path
       d="M 0,0 H 515.32787 V 376.87195 H 0 Z"
       style="fill:#ffffff;fill-opacity:1;fill-rule:nonzero;stroke:none"
       id="path5262" />
    <path
       d="M 43.871875,84.97895 H 508.12788 v 269.568 H 43.871875 Z"
       style="fill:#ffffff;fill-opacity:1;fill-rule:nonzero;stroke:none"
       id="path5264" />
    <g
       id="g5266">
      <g
         id="g5268"
         clip-path="url(#clipPath5272)">
        <path
           d="m 43.871875,84.97895 v 0 l 19.808256,-0.394675 19.808256,-1.480031 19.808253,0.02716 19.80826,4.641061 19.80825,-0.743293 19.80826,2.516684 19.80826,10.701774 19.80825,1.24036 19.80826,2.3272 19.80826,3.59671 19.80825,7.67091 19.80826,2.83302 19.80825,4.66083 19.80826,5.47197 19.80825,0.96353 19.80826,6.94611 19.80826,6.66842 19.80825,5.02221 19.80826,-2.34529 19.80825,2.04003 19.80826,2.1082 19.80826,-5.69452 19.80825,5.79319 19.80826,0.62472 19.80826,2.68638 19.80825,2.78914 19.80826,15.8006 19.80825,-12.41325 19.80826,4.86089 19.80825,5.87124 19.80826,2.08407 19.80826,-0.22884 19.80825,-0.59674 19.80826,0.58646 19.80826,12.40387 19.80825,6.99604 19.80826,-0.37175 19.80825,6.78342 19.80826,-5.27766 19.80825,7.58321 19.80826,-2.82467 19.80826,-4.36171 19.80825,8.15712 19.80826,-4.17557 19.80826,-3.25882 19.80825,8.25173 19.80826,-3.09896 19.80825,5.55556 19.80824,6.01335 19.8083,-1.06822 19.8082,10.16816 19.8083,-3.39188 19.8082,7.33622 19.8083,-8.88268 19.8083,4.7905 19.8082,2.64753 19.8083,-3.29026 19.8082,-2.83153 19.8083,6.63715 19.8082,-0.93788 19.8083,-3.99938 19.8082,3.46434 19.8083,-3.69053 19.8083,10.4903 19.8082,9.93897 19.8083,-10.89724 19.8082,-0.20036 19.8083,0.7444 19.8082,2.16586 19.8083,7.79679 19.8083,-4.09931 19.8082,3.99143 19.8083,-8.97499 19.8082,1.75026 19.8083,14.53533 19.8082,2.11209 19.8083,5.26387 19.8082,4.91987 19.8083,-3.95303 19.8083,3.63793 19.8082,0.74702 19.8083,-7.69551 19.8082,2.15106 19.8083,1.94884 19.8082,-0.68378 19.8083,-6.57588 19.8082,0.69164 19.8083,8.97262 19.8083,-0.58381 19.8082,-3.56427 19.8083,6.9946 19.8082,4.17925 19.8083,-10.81012 19.8082,7.37319 19.8083,-3.06671 19.8083,8.54548 19.8082,1.14962 19.8083,-9.31324 19.8082,5.34296 19.8083,8.47187 19.8082,-12.60709 19.8083,11.49697 19.8082,-6.55317 19.8083,9.3163 19.8083,1.45064 19.8082,-5.86301 19.8083,6.54157 19.8082,1.90267 19.8083,3.03767 19.8082,-6.19394 19.8083,9.53221 19.8082,2.54956 19.8083,-2.54403 19.8083,1.29383 19.8082,-9.60908 19.8083,6.59691 19.8082,4.01095 19.8083,2.05717 19.8082,-7.03851 19.8083,7.03834 19.8083,1.77312 19.8082,4.07005 19.8083,-2.76495 19.8082,-0.71635 19.8083,1.49589 19.8082,9.70614 19.8083,-6.74709 19.8082,-0.90908 19.8083,6.37171 19.8083,-5.11988 19.8082,2.43468 19.8083,4.9878 19.8082,7.24635 19.8083,-9.66964 19.8082,-0.68503 19.8083,10.6319 19.8082,-2.22745 19.8083,1.41749 19.8083,-6.48371 19.8082,3.25101 19.8083,8.03433 19.8082,-5.54273 19.8083,-1.9718 19.8082,3.78484 19.8083,3.03397 19.8083,4.34665 19.8082,-1.41302 19.8083,-3.42545 19.8082,1.86462 19.8083,-0.0752 19.8082,-1.19352 19.8083,3.6833 19.8082,-5.82864 19.8083,10.11423 19.8083,-1.00961 19.8082,-6.63651 19.8083,4.63444 19.8082,2.738 19.8083,0.29912 19.8082,-3.88029 19.8083,2.54681 19.8082,2.55948 19.8083,2.02514 19.8083,0.31595 19.8082,0.65017 19.8083,0.89945 19.8082,0.12967 19.8083,-1.47408 19.8082,-0.28937 19.8083,1.03615 19.8083,3.25271 19.8082,-0.74949 19.8083,2.81561 19.8082,-2.91492 19.8083,3.59225 19.8082,-3.32475 19.8083,-5.0379 19.8082,2.32126 19.8083,0.46286 19.8083,-0.94572 19.8082,1.8906 19.8083,4.78064 19.8082,-5.16624 19.8083,-1.57222 19.8082,7.36598 19.8083,-5.22959 19.8082,6.88816 19.8083,-0.79151 19.8083,-3.07728 19.8082,-1.30747 19.8083,2.68309 19.8082,-5.83797 19.8083,1.53984 19.8082,3.49826 19.8083,2.64433 19.8083,-5.98646 19.8082,10.88975 19.8083,-4.33769 19.8082,-3.91198 19.8083,3.99095 19.8082,1.07701 19.8083,1.51511 19.8082,1.00069 19.8083,-4.64341 19.8083,-0.28206 19.8082,-4.89321 19.8083,3.53537 19.8082,-2.11507 19.8083,5.83049 19.8082,-2.87954 19.8083,3.90573 19.8082,-5.11215 19.8083,-2.70777 19.8083,8.14696 19.8082,2.78076 19.8083,-3.91897 19.8082,-1.22023 19.8083,1.00448 19.8082,2.5351 19.8083,-0.52264 19.8083,-2.26627 19.8082,0.27775 19.8083,-0.11586 19.8082,2.30952 19.8083,5.44483 19.8082,-4.30576 19.8083,0.9104 19.8082,0.4441 19.8083,0.91122 19.8083,-1.92923 19.8082,1.02343 19.8083,1.1297 19.8082,-1.31089 19.8083,-2.31801 19.8082,0.29031 19.8083,-0.20848 19.8082,3.79988 19.8083,-5.35869 19.8083,1.77192 19.8082,2.17164 19.8083,-3.68973 19.8082,2.47962 19.8083,-0.005 19.8082,5.24647 19.8083,-4.45685 19.8083,-0.64241 19.8082,0.77464 19.8083,3.91442 19.8082,-4.16649 19.8083,-1.94938 19.8082,2.19293 19.8083,3.87629 19.8082,-0.47362 19.8083,-5.19331 19.8083,6.00715 19.8082,-2.55082 19.8083,4.53163 19.8082,-4.06623 19.8083,2.64877 19.8082,-1.03232 19.8083,-0.56112 19.8082,-1.27941 19.8083,-1.81312 19.8083,2.67577 19.8082,0.51772 19.8083,2.02713 19.8082,-4.05448 19.8083,3.75906 19.8082,1.73537 19.8083,-3.98419 19.8083,0.85804 19.8082,1.71193 19.8083,0.76064 19.8082,-4.8193 19.8083,4.75125 19.8082,0.29965 19.8083,-3.88469 19.8082,0.25824 v 9.28739 0 l -19.8082,-1.08961 -19.8083,0.4284 -19.8082,-2.39604 -19.8083,5.02083 -19.8082,0.30249 -19.8083,-3.01332 -19.8082,-1.79244 -19.8083,-1.02895 -19.8083,1.94631 -19.8082,-0.69073 -19.8083,-2.44102 -19.8082,3.49342 -19.8083,-0.66855 -19.8082,-0.29098 -19.8083,0.78879 -19.8083,-0.46528 -19.8082,0.33801 -19.8083,-0.8307 -19.8082,-0.76274 -19.8083,-0.0469 -19.8082,2.13383 -19.8083,-0.59015 -19.8082,-3.89865 -19.8083,4.12016 -19.8083,0.46762 -19.8082,-4.24757 -19.8083,1.18062 -19.8082,3.27119 -19.8083,-2.21895 -19.8082,0.68575 -19.8083,-0.66825 -19.8082,-0.30363 -19.8083,2.05328 -19.8083,-3.91773 -19.8082,-0.68402 -19.8083,4.84765 -19.8082,-1.02476 -19.8083,0.89292 -19.8082,-2.41102 -19.8083,0.15452 -19.8083,-1.04561 -19.8082,0.56506 -19.8083,-0.47804 -19.8082,2.71642 -19.8083,-4.74412 -19.8082,4.35004 -19.8083,-1.83556 -19.8082,2.1017 -19.8083,-1.65966 -19.8083,1.9895 -19.8082,-0.90374 -19.8083,3.60607 -19.8082,-2.41877 -19.8083,4.09699 -19.8082,-1.19488 -19.8083,-3.88981 -19.8082,0.54733 -19.8083,0.15984 -19.8083,-1.60092 -19.8082,-1.50842 -19.8083,3.16103 -19.8082,-2.02893 -19.8083,-0.41458 -19.8082,2.24161 -19.8083,0.86863 -19.8083,-3.78604 -19.8082,0.54877 -19.8083,-0.94649 -19.8082,1.97268 -19.8083,0.16956 -19.8082,-2.38463 -19.8083,-0.50815 -19.8082,2.92425 -19.8083,2.41363 -19.8083,-2.2173 -19.8082,-1.15584 -19.8083,2.05422 -19.8082,0.80746 -19.8083,-6.25264 -19.8082,0.13154 -19.8083,-0.56373 -19.8082,4.68968 -19.8083,-3.82992 -19.8083,-2.2079 -19.8082,3.49827 -19.8083,-0.34713 -19.8082,-4.49014 -19.8083,2.95265 -19.8082,-2.11616 -19.8083,3.12279 -19.8083,-0.79152 -19.8082,2.30551 -19.8083,-4.42089 -19.8082,1.70506 -19.8083,0.85388 -19.8082,-2.74012 -19.8083,-2.76728 -19.8082,4.85586 -19.8083,-0.67615 -19.8083,-4.11981 -19.8082,4.20825 -19.8083,0.8926 -19.8082,-3.32476 -19.8083,-1.25997 -19.8082,3.55471 -19.8083,-0.68878 -19.8082,-0.21034 -19.8083,-1.06038 -19.8083,-3.54652 -19.8082,-0.0198 -19.8083,-2.28279 -19.8082,-2.83557 -19.8083,1.43858 -19.8082,2.26758 -19.8083,-3.72758 -19.8083,6.6078 -19.8082,-0.13619 -19.8083,-7.69678 -19.8082,1.2415 -19.8083,-1.31829 -19.8082,1.65973 -19.8083,4.63444 -19.8082,-3.13213 -19.8083,-1.27917 -19.8083,-3.0946 -19.8082,-2.32427 -19.8083,3.68331 -19.8082,-1.73265 -19.8083,-0.88386 -19.8082,2.67332 -19.8083,-4.50371 -19.8082,4.51747 -19.8083,-6.16651 -19.8083,0.0687 -19.8082,-4.30221 -19.8083,4.49784 -19.8082,4.43128 -19.8083,0.756 -19.8082,-5.9143 -19.8083,2.68159 -19.8083,-5.05213 -19.8082,-1.95789 -19.8083,3.8927 -19.8082,-9.58076 -19.8083,7.04356 -19.8082,-5.96247 -19.8083,2.29211 -19.8082,0.009 -19.8083,-6.46772 -19.8083,-1.44576 -19.8082,-3.87433 -19.8083,4.30521 -19.8082,-1.88529 -19.8083,1.22633 -19.8082,-6.10772 -19.8083,-5.46062 -19.8082,3.80047 -19.8083,-3.0791 -19.8083,1.64697 -19.8082,3.20507 -19.8083,-4.68202 -19.8082,3.20225 -19.8083,-3.91624 -19.8082,2.79104 -19.8083,-4.36709 -19.8083,-3.08317 -19.8082,2.01042 -19.8083,1.71473 -19.8082,-2.68955 -19.8083,-1.27541 -19.8082,1.09396 -19.8083,0.0719 -19.8082,3.30231 -19.8083,-7.98424 -19.8083,0.42055 -19.8082,-4.12707 -19.8083,-0.36402 -19.8082,-2.63307 -19.8083,1.73267 -19.8082,-6.7876 -19.8083,1.73906 -19.8082,0.88004 -19.8083,-1.6981 -19.8083,0.70724 -19.8082,2.2514 -19.8083,-4.07092 -19.8082,-9.02958 -19.8083,6.99459 -19.8082,0.47925 -19.8083,-1.93165 -19.8083,-6.66233 -19.8082,2.03949 -19.8083,-1.4541 -19.8082,7.94242 -19.8083,-3.44254 -19.8082,-13.75346 -19.8083,17.37433 -19.8082,-8.68785 -19.8083,0.13354 -19.8083,-1.52692 -19.8082,-0.47149 -19.8083,-9.56238 -19.8082,9.39043 -19.8083,0.78736 -19.8082,-11.9977 -19.8083,8.00778 -19.8082,-4.63473 -19.8083,-4.09931 -19.8083,1.32715 -19.8082,-7.80816 -19.8083,2.90095 -19.8082,-1.81776 -19.8083,3.65943 -19.8082,-4.34813 -19.8083,2.13367 -19.8083,-10.69929 -19.8082,5.35131 -19.8083,1.66156 -19.8082,-0.93788 -19.8083,-7.91953 -19.8082,4.44681 -19.8083,-12.18601 -19.8082,4.80409 -19.8083,4.52093 -19.8083,-1.06521 -19.8082,-4.79434 -19.8083,0.65163 -19.8082,-4.65807 -19.8083,-1.3378 -19.80824,6.5525 -19.80825,-5.49673 -19.80826,2.02283 -19.80825,-8.46149 -19.80826,-0.8327 -19.80826,-5.25384 -19.80825,3.57445 -19.80826,-5.97911 -19.80826,7.14934 -19.80825,-6.16475 -19.80826,-10.66903 -19.80825,9.74866 -19.80826,8.52401 -19.80825,2.68295 -19.80826,-12.66596 -19.80826,-4.8049 -19.80825,0.21196 -19.80826,8.39733 -19.80826,-3.03771 -19.80825,-7.3376 -19.80826,6.74788 -19.80825,-8.36973 -19.80826,-10.61707 -19.80825,20.0415 -19.80826,-4.05283 -19.80826,-7.46232 -19.80825,11.18455 -19.80826,-1.651 -19.80826,5.61259 -19.80825,-11.70795 -19.80826,1.1591 -19.80825,2.59609 -19.80826,-0.6099 -19.80826,-16.50632 -19.80825,-4.69739 -19.80826,4.93283 -19.80825,-1.26967 -19.80826,-3.09747 -19.80825,-17.66849 -19.80826,-9.07298 -19.80826,-7.64682 -19.80825,-1.45532 -19.80826,-21.10725 -19.80826,-2.60511 L 123.1049,106.98569 103.29664,95.991806 83.488387,91.975448 63.680131,86.451897 Z"
           style="fill:#add8e6;fill-opacity:0.7;fill-rule:nonzero;stroke:#add8e6;stroke-width:1;stroke-linecap:butt;stroke-linejoin:round;stroke-miterlimit:10;stroke-dasharray:none;stroke-opacity:0.7"
           id="path5274" />
      </g>
    </g>
    <g
       id="g5276">
      <g
         id="g5278"
         clip-path="url(#clipPath5282)">
        <path
           d="m 43.871875,84.97895 v 0 l 19.808256,11.991183 19.808256,5.313397 19.808253,-12.644471 19.80826,74.393941 19.80825,71.99693 19.80826,52.10763 19.80826,12.84063 19.80825,0.25882 19.80826,17.38471 19.80826,-0.497 19.80825,8.75471 19.80826,0.86241 19.80825,1.44334 19.80826,12.27712 19.80825,-3.76986 19.80826,4.53006 19.80826,-1.30258 19.80825,4.45588 19.80826,-1.34785 19.80825,3.18958 19.80826,-1.69754 19.80826,0.52298 19.80825,0.47679 19.80826,3.82392 19.80826,-1.14251 19.80825,1.50643 19.80826,0.23631 19.80825,-2.06822 19.80826,0.85627 19.80825,1.38285 19.80826,0.28375 19.80826,-0.45273 19.80825,-1.29541 19.80826,1.10771 19.80826,2.17142 19.80825,-1.07827 19.80826,-3.62308 19.80825,2.00567 19.80826,2.03538 19.80825,-1.83851 19.80826,-0.76244 19.80826,-0.60451 19.80825,-0.2222 19.80826,0.20755 19.80826,0.44489 19.80825,-0.12576 19.80826,-0.67314 19.80825,1.4787 19.80824,-0.41843 19.8083,0.8169 19.8082,0.17427 19.8083,-0.55082 19.8082,-2.15365 19.8083,3.95528 19.8083,-1.3524 19.8082,0.0362 19.8083,0.88563 19.8082,-1.88697 19.8083,2.51322 19.8082,0.40327 19.8083,-1.17168 19.8082,1.05215 19.8083,-1.59129 19.8083,1.47846 19.8082,-0.53178 19.8083,-0.45042 19.8082,-5.12343 19.8083,5.50758 19.8082,-1.00781 19.8083,0.42675 19.8083,-110.26584 19.8082,52.84771 19.8083,52.26838 19.8082,-1.66788 19.8083,5.90385 19.8082,-0.90598 19.8083,-0.8396 19.8082,2.45342 19.8083,0.51097 19.8083,-1.386 19.8082,-0.0537 19.8083,1.01955 19.8082,0.15053 19.8083,-0.21095 19.8082,-0.29643 19.8083,0.54631 19.8082,-0.0389 19.8083,1.70921 19.8083,-2.38888 19.8082,-1.96351 19.8083,0.94598 19.8082,1.12259 19.8083,-3.24953 19.8082,3.37681 19.8083,-4.27698 19.8083,3.55721 19.8082,-1.22439 19.8083,0.98391 19.8082,-0.15733 19.8083,1.46129 19.8082,-1.63288 19.8083,-0.30687 19.8082,2.90014 19.8083,-1.34223 19.8083,0.47081 19.8082,1.09292 19.8083,-0.98647 19.8082,0.19687 19.8083,-0.93142 19.8082,0.40493 19.8083,-3.31651 19.8082,3.4038 19.8083,-0.309 19.8083,-0.99193 19.8082,2.22686 19.8083,0.64518 19.8082,-1.38882 19.8083,-0.39068 19.8082,0.76654 19.8083,0.0372 19.8083,0.6399 19.8082,0.62448 19.8083,-0.82359 19.8082,-3.51391 19.8083,-0.59697 19.8082,3.63243 19.8083,-0.8667 19.8082,-5.89274 19.8083,7.33919 19.8083,-1.05835 19.8082,0.94551 19.8083,-1.90486 19.8082,2.73999 19.8083,-1.6174 19.8082,-0.29627 19.8083,0.1751 19.8082,0.16696 19.8083,-0.62925 19.8083,-1.22937 19.8082,1.22937 19.8083,-1.26629 19.8082,-2.31505 19.8083,4.95861 19.8082,-0.99453 19.8083,0.85237 19.8083,-2.61794 19.8082,2.75593 19.8083,-0.80185 19.8082,0.96931 19.8083,-0.17483 19.8082,-0.18349 19.8083,-1.09213 19.8082,0.064 19.8083,-0.41255 19.8083,-7.58334 19.8082,9.28018 19.8083,0.13151 19.8082,-1.38406 19.8083,2.45547 19.8082,-0.77367 19.8083,-0.14628 19.8082,-0.28343 19.8083,-0.31535 19.8083,-1.7049 19.8082,-2.53785 19.8083,-1.18984 19.8082,4.78962 19.8083,-13.82144 19.8082,11.5503 19.8083,1.6385 19.8083,1.15443 19.8082,-0.16328 19.8083,-5.6519 19.8082,4.2589 19.8083,1.88339 19.8082,-0.86624 19.8083,0.0294 19.8082,-2.28315 19.8083,2.52105 19.8083,-1.31617 19.8082,-1.37392 19.8083,1.52639 19.8082,2.09588 19.8083,-3.84423 19.8082,1.68768 19.8083,-2.11524 19.8082,1.95201 19.8083,-2.72635 19.8083,2.5977 19.8082,3.15846 19.8083,-4.22082 19.8082,0.99074 19.8083,-0.097 19.8082,-0.4782 19.8083,3.51319 19.8083,-0.81265 19.8082,-2.34532 19.8083,0.12298 19.8082,1.25012 19.8083,-0.91768 19.8082,0.80871 19.8083,-1.21981 19.8082,0.14153 19.8083,-0.50503 19.8083,1.56107 19.8082,-14.47873 19.8083,13.60188 19.8082,-2.41212 19.8083,3.79522 19.8082,-3.43822 19.8083,4.11677 19.8082,-0.22582 19.8083,-0.30276 19.8083,-0.24859 19.8082,-0.99642 19.8083,-0.75616 19.8082,-2.11626 19.8083,3.42832 19.8082,-1.2402 19.8083,0.0755 19.8083,0.74866 19.8082,-0.4333 19.8083,-0.13973 19.8082,-4.03302 19.8083,4.7525 19.8082,1.33107 19.8083,-2.71975 19.8082,-0.66402 19.8083,3.01813 19.8083,-3.03689 19.8082,0.32312 19.8083,3.07942 19.8082,0.55589 19.8083,-0.98691 v 2.07058 0 l -19.8083,0.0913 -19.8082,0.28633 -19.8083,-0.1554 -19.8082,1.13183 -19.8083,-1.95861 -19.8083,-0.21669 -19.8082,-0.39446 -19.8083,1.59334 -19.8082,-2.1733 -19.8083,2.86552 -19.8082,-0.79821 -19.8083,-1.48755 -19.8082,1.1841 -19.8083,-0.0601 -19.8083,0.0755 -19.8082,-1.50975 -19.8083,1.27177 -19.8082,0.57943 -19.8083,-1.56486 -19.8082,1.96882 -19.8083,-0.51816 -19.8083,-0.30275 -19.8082,0.31331 -19.8083,-0.73547 -19.8082,-0.47296 -19.8083,1.09954 -19.8082,0.55313 -19.8083,3.35829 -19.8082,-3.15688 -19.8083,-1.13459 -19.8083,-0.77461 -19.8082,0.95024 -19.8083,0.12802 -19.8082,-0.80869 -19.8083,0.16059 -19.8082,0.44142 -19.8083,-0.41615 -19.8082,0.88949 -19.8083,0.26562 -19.8083,-1.06947 -19.8082,0.33051 -19.8083,0.44215 -19.8082,0.72118 -19.8083,-0.986 -19.8082,-0.34593 -19.8083,1.24986 -19.8083,-2.45677 -19.8082,2.22157 -19.8083,-0.7674 -19.8082,-0.19929 -19.8083,0.73842 -19.8082,1.01761 -19.8083,-0.89973 -19.8082,-1.91305 -19.8083,0.84038 -19.8083,0.0949 -19.8082,0.14297 -19.8083,-0.77935 -19.8082,0.75118 -19.8083,-0.004 -19.8082,-1.13247 -19.8083,1.89601 -19.8082,-0.97199 -19.8083,-1.54123 -19.8083,1.63848 -19.8082,2.65457 -19.8083,-1.69089 -19.8082,-0.60174 -19.8083,1.7754 -19.8082,-1.72914 -19.8083,-0.62662 -19.8083,1.57161 -19.8082,-0.28342 -19.8083,-0.41585 -19.8082,0.035 -19.8083,-0.24021 -19.8082,0.77248 -19.8083,-0.67719 -19.8082,0.38443 -19.8083,-1.38326 -19.8083,0.39615 -19.8082,0.064 -19.8083,0.52528 -19.8082,-0.18348 -19.8083,0.0947 -19.8082,0.69973 -19.8083,-0.26271 -19.8082,-0.47888 -19.8083,0.88643 -19.8083,-0.2259 -19.8082,0.35331 -19.8083,-0.7023 -19.8082,-1.50635 -19.8083,1.69895 -19.8082,-1.19673 -19.8083,1.19673 -19.8083,-0.35968 -19.8082,-1.18088 -19.8083,1.25337 -19.8082,-0.83539 -19.8083,0.53913 -19.8082,0.0443 -19.8083,-0.0179 -19.8082,-0.40234 -19.8083,0.28948 -19.8083,1.40869 -19.8082,-1.0405 -19.8083,0.21157 -19.8082,-0.14154 -19.8083,0.75087 -19.8082,-0.01 -19.8083,-0.0149 -19.8082,-0.45378 -19.8083,0.10077 -19.8083,-1.04107 -19.8082,0.49698 -19.8083,0.68758 -19.8082,0.22858 -19.8083,-0.70264 -19.8082,-0.73839 -19.8083,0.62548 -19.8083,-0.0394 -19.8082,1.78638 -19.8083,-1.42954 -19.8082,-0.13419 -19.8083,0.14684 -19.8082,0.46644 -19.8083,-0.17777 -19.8082,0.0147 -19.8083,0.20123 -19.8083,-0.80307 -19.8082,0.47402 -19.8083,-1.11558 -19.8082,1.33237 -19.8083,-0.15612 -19.8082,-1.23559 -19.8083,1.52305 -19.8082,-0.14613 -19.8083,0.0528 -19.8083,-1.04216 -19.8082,1.48983 -19.8083,-1.90169 -19.8082,1.93129 -19.8083,-1.7497 -19.8082,0.19304 -19.8083,0.0372 -19.8083,-0.17776 -19.8082,0.76977 -19.8083,-0.26239 -19.8082,-0.56601 -19.8083,0.0586 -19.8082,0.4201 -19.8083,0.4804 -19.8082,-0.32322 -19.8083,-0.30772 -19.8083,-1.376 -19.8082,0.0273 -19.8083,0.23866 -19.8082,0.71143 -19.8083,0.24292 -19.8082,-1.12873 -19.8083,12.91144 -19.8082,17.53429 -19.8083,-29.12585 -19.8083,-0.38196 -19.8082,0.34004 -19.8083,0.11621 -19.8082,-0.2712 -19.8083,0.35826 -19.8082,0.007 -19.8083,-0.40853 -19.8083,0.29567 -19.8082,0.24345 -19.8083,-0.0934 -19.8082,-0.67501 -19.8083,-0.99115 -19.8082,1.88698 -19.8083,-1.27092 -19.8082,0.57535 -19.8083,0.26502 -19.8083,-0.35781 -19.8082,0.8116 -19.8083,-1.89865 -19.8082,1.5221 -19.8083,0.81689 -19.80824,-1.22712 -19.80825,-0.94742 -19.80826,0.94428 -19.80825,-0.6649 -19.80826,-0.36383 -19.80826,0.74669 -19.80825,-1.8396 -19.80826,-0.0654 -19.80826,1.93324 -19.80825,0.5876 -19.80826,-1.73858 -19.80825,2.00567 -19.80826,-0.38826 h -19.80825 l -19.80826,-0.25469 -19.80826,-0.24013 -19.80825,0.322 -19.80826,-0.7223 -19.80826,-0.52495 -19.80825,0.57414 -19.80826,-0.22201 -19.80825,-0.98994 -19.80826,1.58416 -19.80825,-0.65012 -19.80826,0.20533 -19.80826,0.5891 -19.80825,-2.75802 -19.80826,0.25342 -19.80826,0.18942 -19.80825,-0.58437 -19.80826,1.34784 -19.80825,-1.47462 -19.80826,-0.76344 -19.80826,-3.28742 -19.80825,0.54323 -19.80826,-10.90573 -19.80825,-2.60019 -19.80826,-0.75498 -19.80825,-2.29759 -19.80826,-8.85361 -19.80826,-2.56332 -19.80825,-3.24557 L 162.72141,303.42471 142.91315,282.4794 123.1049,232.90116 103.29664,211.05932 83.488387,152.31873 63.680131,108.84031 Z"
           style="fill:#ffdead;fill-opacity:0.7;fill-rule:nonzero;stroke:#ffdead;stroke-width:1;stroke-linecap:butt;stroke-linejoin:round;stroke-miterlimit:10;stroke-dasharray:none;stroke-opacity:0.7"
           id="path5284" />
      </g>
    </g>
    <g
       id="g5286">
      <g
         id="g5288"
         clip-path="url(#clipPath5292)">
        <path
           d="m 43.871875,84.97895 v 0 l 19.808256,4.464476 19.808256,39.603694 19.808253,30.04436 19.80826,75.08971 19.80825,16.17808 19.80826,-16.98646 19.80826,38.71054 19.80825,10.04783 19.80826,35.92325 19.80826,-19.88742 19.80825,17.02038 19.80826,-7.13754 19.80825,21.55198 19.80826,-9.14468 19.80825,6.89611 19.80826,1.22474 19.80826,3.86438 19.80825,1.76274 19.80826,2.73727 19.80825,-0.48318 19.80826,1.61219 19.80826,3.65432 19.80825,-2.67642 19.80826,-0.0734 19.80826,0.81369 19.80825,3.52393 19.80826,4.03857 19.80825,-3.75944 19.80826,1.06925 19.80825,-2.79685 19.80826,3.5624 19.80826,-0.59284 19.80825,2.32041 19.80826,-0.51648 v 3.68629 0 l -19.80826,1.10095 -19.80825,-1.99269 -19.80826,-1.67111 -19.80826,0.058 -19.80825,1.24667 -19.80826,-0.009 -19.80825,0.82321 -19.80826,-3.77891 -19.80825,-3.21526 -19.80826,5.12678 -19.80826,-1.69081 -19.80825,-1.32859 -19.80826,-1.1979 -19.80826,-4.58788 -19.80825,2.2125 -19.80826,1.38943 -19.80825,-1.74165 -19.80826,-5.57049 -19.80826,-0.39267 -19.80825,-6.04316 -19.80826,5.95113 -19.80825,-0.0135 -19.80826,-6.05927 -19.80825,-4.54506 -19.80826,-1.55679 -19.80826,-5.59022 -19.80825,-3.16102 -19.80826,0.97104 -19.80826,-11.5951 L 123.1049,288.91081 103.29664,231.10348 83.488387,196.45152 63.680131,125.53233 Z"
           style="fill:#f0fff0;fill-opacity:0.7;fill-rule:nonzero;stroke:#f0fff0;stroke-width:1;stroke-linecap:butt;stroke-linejoin:round;stroke-miterlimit:10;stroke-dasharray:none;stroke-opacity:0.7"
           id="path5294" />
      </g>
    </g>
    <g
       id="g5296">
      <g
         id="g5298"
         clip-path="url(#clipPath5302)">
        <path
           d="m 43.871875,84.97895 v 269.568"
           style="fill:none;stroke:#b0b0b0;stroke-width:0.8;stroke-linecap:square;stroke-linejoin:round;stroke-miterlimit:10;stroke-dasharray:none;stroke-opacity:1"
           id="path5304" />
      </g>
    </g>
    <g
       id="g5306">
      <path
         d="m 43.871875,84.97895 v -3.5"
         style="fill:#000000;fill-opacity:1;fill-rule:nonzero;stroke:#000000;stroke-width:0.8;stroke-linecap:butt;stroke-linejoin:round;stroke-miterlimit:10;stroke-dasharray:none;stroke-opacity:1"
         id="path5308" />
      <g
         id="g5310"
         transform="translate(35.871875,70.3852)">
        <text
           xml:space="preserve"
           transform="matrix(1,0,0,-1,0,0.578125)"
           style="font-variant:normal;font-weight:normal;font-size:10px;font-family:'DejaVu Sans';-inkscape-font-specification:DejaVuSans;writing-mode:lr-tb;fill:#000000;fill-opacity:1;fill-rule:nonzero;stroke:none"
           id="text5314"><tspan
             x="0 6.3623047 9.5410156"
             y="0"
             id="tspan5312">0.0</tspan></text>
      </g>
    </g>
    <g
       id="g5316">
      <g
         id="g5318"
         clip-path="url(#clipPath5322)">
        <path
           d="m 105.77267,84.97895 v 269.568"
           style="fill:none;stroke:#b0b0b0;stroke-width:0.8;stroke-linecap:square;stroke-linejoin:round;stroke-miterlimit:10;stroke-dasharray:none;stroke-opacity:1"
           id="path5324" />
      </g>
    </g>
    <g
       id="g5326">
      <path
         d="m 105.77267,84.97895 v -3.5"
         style="fill:#000000;fill-opacity:1;fill-rule:nonzero;stroke:#000000;stroke-width:0.8;stroke-linecap:butt;stroke-linejoin:round;stroke-miterlimit:10;stroke-dasharray:none;stroke-opacity:1"
         id="path5328" />
      <g
         id="g5330"
         transform="translate(97.772675,70.3852)">
        <text
           xml:space="preserve"
           transform="matrix(1,0,0,-1,0,0.578125)"
           style="font-variant:normal;font-weight:normal;font-size:10px;font-family:'DejaVu Sans';-inkscape-font-specification:DejaVuSans;writing-mode:lr-tb;fill:#000000;fill-opacity:1;fill-rule:nonzero;stroke:none"
           id="text5334"><tspan
             x="0 6.3623047 9.0410156"
             y="0"
             id="tspan5332">0.2</tspan></text>
      </g>
    </g>
    <g
       id="g5336">
      <g
         id="g5338"
         clip-path="url(#clipPath5342)">
        <path
           d="m 167.67347,84.97895 v 269.568"
           style="fill:none;stroke:#b0b0b0;stroke-width:0.8;stroke-linecap:square;stroke-linejoin:round;stroke-miterlimit:10;stroke-dasharray:none;stroke-opacity:1"
           id="path5344" />
      </g>
    </g>
    <g
       id="g5346">
      <path
         d="m 167.67347,84.97895 v -3.5"
         style="fill:#000000;fill-opacity:1;fill-rule:nonzero;stroke:#000000;stroke-width:0.8;stroke-linecap:butt;stroke-linejoin:round;stroke-miterlimit:10;stroke-dasharray:none;stroke-opacity:1"
         id="path5348" />
      <g
         id="g5350"
         transform="translate(159.67347,70.3852)">
        <text
           xml:space="preserve"
           transform="matrix(1,0,0,-1,0,0.578125)"
           style="font-variant:normal;font-weight:normal;font-size:10px;font-family:'DejaVu Sans';-inkscape-font-specification:DejaVuSans;writing-mode:lr-tb;fill:#000000;fill-opacity:1;fill-rule:nonzero;stroke:none"
           id="text5354"><tspan
             x="0 6.3623047 9.5410156"
             y="0"
             id="tspan5352">0.4</tspan></text>
      </g>
    </g>
    <g
       id="g5356">
      <g
         id="g5358"
         clip-path="url(#clipPath5362)">
        <path
           d="m 229.57427,84.97895 v 269.568"
           style="fill:none;stroke:#b0b0b0;stroke-width:0.8;stroke-linecap:square;stroke-linejoin:round;stroke-miterlimit:10;stroke-dasharray:none;stroke-opacity:1"
           id="path5364" />
      </g>
    </g>
    <g
       id="g5366">
      <path
         d="m 229.57427,84.97895 v -3.5"
         style="fill:#000000;fill-opacity:1;fill-rule:nonzero;stroke:#000000;stroke-width:0.8;stroke-linecap:butt;stroke-linejoin:round;stroke-miterlimit:10;stroke-dasharray:none;stroke-opacity:1"
         id="path5368" />
      <g
         id="g5370"
         transform="translate(221.57427,70.3852)">
        <text
           xml:space="preserve"
           transform="matrix(1,0,0,-1,0,0.578125)"
           style="font-variant:normal;font-weight:normal;font-size:10px;font-family:'DejaVu Sans';-inkscape-font-specification:DejaVuSans;writing-mode:lr-tb;fill:#000000;fill-opacity:1;fill-rule:nonzero;stroke:none"
           id="text5374"><tspan
             x="0 6.3623047 9.5410156"
             y="0"
             id="tspan5372">0.6</tspan></text>
      </g>
    </g>
    <g
       id="g5376">
      <g
         id="g5378"
         clip-path="url(#clipPath5382)">
        <path
           d="m 291.47507,84.97895 v 269.568"
           style="fill:none;stroke:#b0b0b0;stroke-width:0.8;stroke-linecap:square;stroke-linejoin:round;stroke-miterlimit:10;stroke-dasharray:none;stroke-opacity:1"
           id="path5384" />
      </g>
    </g>
    <g
       id="g5386">
      <path
         d="m 291.47507,84.97895 v -3.5"
         style="fill:#000000;fill-opacity:1;fill-rule:nonzero;stroke:#000000;stroke-width:0.8;stroke-linecap:butt;stroke-linejoin:round;stroke-miterlimit:10;stroke-dasharray:none;stroke-opacity:1"
         id="path5388" />
      <g
         id="g5390"
         transform="translate(283.47507,70.3852)">
        <text
           xml:space="preserve"
           transform="matrix(1,0,0,-1,0,0.578125)"
           style="font-variant:normal;font-weight:normal;font-size:10px;font-family:'DejaVu Sans';-inkscape-font-specification:DejaVuSans;writing-mode:lr-tb;fill:#000000;fill-opacity:1;fill-rule:nonzero;stroke:none"
           id="text5394"><tspan
             x="0 6.3623047 9.2910156"
             y="0"
             id="tspan5392">0.8</tspan></text>
      </g>
    </g>
    <g
       id="g5396">
      <g
         id="g5398"
         clip-path="url(#clipPath5402)">
        <path
           d="m 353.37587,84.97895 v 269.568"
           style="fill:none;stroke:#b0b0b0;stroke-width:0.8;stroke-linecap:square;stroke-linejoin:round;stroke-miterlimit:10;stroke-dasharray:none;stroke-opacity:1"
           id="path5404" />
      </g>
    </g>
    <g
       id="g5406">
      <path
         d="m 353.37587,84.97895 v -3.5"
         style="fill:#000000;fill-opacity:1;fill-rule:nonzero;stroke:#000000;stroke-width:0.8;stroke-linecap:butt;stroke-linejoin:round;stroke-miterlimit:10;stroke-dasharray:none;stroke-opacity:1"
         id="path5408" />
      <g
         id="g5410"
         transform="translate(345.37587,70.3852)">
        <text
           xml:space="preserve"
           transform="matrix(1,0,0,-1,0,0.578125)"
           style="font-variant:normal;font-weight:normal;font-size:10px;font-family:'DejaVu Sans';-inkscape-font-specification:DejaVuSans;writing-mode:lr-tb;fill:#000000;fill-opacity:1;fill-rule:nonzero;stroke:none"
           id="text5414"><tspan
             x="0 6.3623047 9.5410156"
             y="0"
             id="tspan5412">1.0</tspan></text>
      </g>
    </g>
    <g
       id="g5416">
      <g
         id="g5418"
         clip-path="url(#clipPath5422)">
        <path
           d="m 415.27667,84.97895 v 269.568"
           style="fill:none;stroke:#b0b0b0;stroke-width:0.8;stroke-linecap:square;stroke-linejoin:round;stroke-miterlimit:10;stroke-dasharray:none;stroke-opacity:1"
           id="path5424" />
      </g>
    </g>
    <g
       id="g5426">
      <path
         d="m 415.27667,84.97895 v -3.5"
         style="fill:#000000;fill-opacity:1;fill-rule:nonzero;stroke:#000000;stroke-width:0.8;stroke-linecap:butt;stroke-linejoin:round;stroke-miterlimit:10;stroke-dasharray:none;stroke-opacity:1"
         id="path5428" />
      <g
         id="g5430"
         transform="translate(407.27667,70.3852)">
        <text
           xml:space="preserve"
           transform="matrix(1,0,0,-1,0,0.578125)"
           style="font-variant:normal;font-weight:normal;font-size:10px;font-family:'DejaVu Sans';-inkscape-font-specification:DejaVuSans;writing-mode:lr-tb;fill:#000000;fill-opacity:1;fill-rule:nonzero;stroke:none"
           id="text5434"><tspan
             x="0 6.3623047 9.0410156"
             y="0"
             id="tspan5432">1.2</tspan></text>
      </g>
    </g>
    <g
       id="g5436">
      <g
         id="g5438"
         clip-path="url(#clipPath5442)">
        <path
           d="m 477.17748,84.97895 v 269.568"
           style="fill:none;stroke:#b0b0b0;stroke-width:0.8;stroke-linecap:square;stroke-linejoin:round;stroke-miterlimit:10;stroke-dasharray:none;stroke-opacity:1"
           id="path5444" />
      </g>
    </g>
    <g
       id="g5446">
      <path
         d="m 477.17748,84.97895 v -3.5"
         style="fill:#000000;fill-opacity:1;fill-rule:nonzero;stroke:#000000;stroke-width:0.8;stroke-linecap:butt;stroke-linejoin:round;stroke-miterlimit:10;stroke-dasharray:none;stroke-opacity:1"
         id="path5448" />
      <g
         id="g5450"
         transform="translate(469.17748,70.3852)">
        <text
           xml:space="preserve"
           transform="matrix(1,0,0,-1,0,0.703125)"
           style="font-variant:normal;font-weight:normal;font-size:10px;font-family:'DejaVu Sans';-inkscape-font-specification:DejaVuSans;writing-mode:lr-tb;fill:#000000;fill-opacity:1;fill-rule:nonzero;stroke:none"
           id="text5454"><tspan
             x="0 6.3623047 9.5410156"
             y="0"
             id="tspan5452">1.4</tspan></text>
      </g>
      <g
         id="g5456"
         transform="translate(243.30456,56.713325)">
        <text
           xml:space="preserve"
           transform="scale(1,-1)"
           style="font-variant:normal;font-weight:normal;font-size:10px;font-family:'DejaVu Sans';-inkscape-font-specification:DejaVuSans;writing-mode:lr-tb;fill:#000000;fill-opacity:1;fill-rule:nonzero;stroke:none"
           id="text5460"><tspan
             x="0 4.6412501 8.7512503 14.88125 17.661249 24.001249 26.78125 33.12125 39.471249 42.651249 49.001251 52.921249 59.071251"
             y="0"
             id="tspan5458">Training Step</tspan></text>
      </g>
      <g
         id="g5462"
         transform="translate(482.12788,56.3852)">
        <text
           xml:space="preserve"
           transform="matrix(1,0,0,-1,0,0.9765625)"
           style="font-variant:normal;font-weight:normal;font-size:10px;font-family:'DejaVu Sans';-inkscape-font-specification:DejaVuSans;writing-mode:lr-tb;fill:#000000;fill-opacity:1;fill-rule:nonzero;stroke:none"
           id="text5466"><tspan
             x="0 8.3789062 14.741211"
             y="0"
             id="tspan5464">×10</tspan></text>
        <text
           xml:space="preserve"
           transform="matrix(1,0,0,-1,21.199219,4.8046875)"
           style="font-variant:normal;font-weight:normal;font-size:7px;font-family:'DejaVu Sans';-inkscape-font-specification:DejaVuSans;writing-mode:lr-tb;fill:#000000;fill-opacity:1;fill-rule:nonzero;stroke:none"
           id="text5470"><tspan
             x="0"
             y="0"
             id="tspan5468">6</tspan></text>
      </g>
    </g>
    <g
       id="g5472">
      <g
         id="g5474"
         clip-path="url(#clipPath5478)">
        <path
           d="M 43.871875,84.97895 H 508.12788"
           style="fill:none;stroke:#b0b0b0;stroke-width:0.8;stroke-linecap:square;stroke-linejoin:round;stroke-miterlimit:10;stroke-dasharray:none;stroke-opacity:1"
           id="path5480" />
      </g>
    </g>
    <g
       id="g5482">
      <path
         d="m 43.871875,84.97895 h -3.5"
         style="fill:#000000;fill-opacity:1;fill-rule:nonzero;stroke:#000000;stroke-width:0.8;stroke-linecap:butt;stroke-linejoin:round;stroke-miterlimit:10;stroke-dasharray:none;stroke-opacity:1"
         id="path5484" />
      <g
         id="g5486"
         transform="translate(20.871875,81.182075)">
        <text
           xml:space="preserve"
           transform="matrix(1,0,0,-1,0,0.578125)"
           style="font-variant:normal;font-weight:normal;font-size:10px;font-family:'DejaVu Sans';-inkscape-font-specification:DejaVuSans;writing-mode:lr-tb;fill:#000000;fill-opacity:1;fill-rule:nonzero;stroke:none"
           id="text5490"><tspan
             x="0 6.3623047 9.5410156"
             y="0"
             id="tspan5488">0.0</tspan></text>
      </g>
    </g>
    <g
       id="g5492">
      <g
         id="g5494"
         clip-path="url(#clipPath5498)">
        <path
           d="M 43.871875,138.89255 H 508.12788"
           style="fill:none;stroke:#b0b0b0;stroke-width:0.8;stroke-linecap:square;stroke-linejoin:round;stroke-miterlimit:10;stroke-dasharray:none;stroke-opacity:1"
           id="path5500" />
      </g>
    </g>
    <g
       id="g5502">
      <path
         d="m 43.871875,138.89255 h -3.5"
         style="fill:#000000;fill-opacity:1;fill-rule:nonzero;stroke:#000000;stroke-width:0.8;stroke-linecap:butt;stroke-linejoin:round;stroke-miterlimit:10;stroke-dasharray:none;stroke-opacity:1"
         id="path5504" />
      <g
         id="g5506"
         transform="translate(20.871875,135.09567)">
        <text
           xml:space="preserve"
           transform="matrix(1,0,0,-1,0,0.578125)"
           style="font-variant:normal;font-weight:normal;font-size:10px;font-family:'DejaVu Sans';-inkscape-font-specification:DejaVuSans;writing-mode:lr-tb;fill:#000000;fill-opacity:1;fill-rule:nonzero;stroke:none"
           id="text5510"><tspan
             x="0 6.3623047 9.0410156"
             y="0"
             id="tspan5508">0.2</tspan></text>
      </g>
    </g>
    <g
       id="g5512">
      <g
         id="g5514"
         clip-path="url(#clipPath5518)">
        <path
           d="M 43.871875,192.80615 H 508.12788"
           style="fill:none;stroke:#b0b0b0;stroke-width:0.8;stroke-linecap:square;stroke-linejoin:round;stroke-miterlimit:10;stroke-dasharray:none;stroke-opacity:1"
           id="path5520" />
      </g>
    </g>
    <g
       id="g5522">
      <path
         d="m 43.871875,192.80615 h -3.5"
         style="fill:#000000;fill-opacity:1;fill-rule:nonzero;stroke:#000000;stroke-width:0.8;stroke-linecap:butt;stroke-linejoin:round;stroke-miterlimit:10;stroke-dasharray:none;stroke-opacity:1"
         id="path5524" />
      <g
         id="g5526"
         transform="translate(20.871875,189.00927)">
        <text
           xml:space="preserve"
           transform="matrix(1,0,0,-1,0,0.578125)"
           style="font-variant:normal;font-weight:normal;font-size:10px;font-family:'DejaVu Sans';-inkscape-font-specification:DejaVuSans;writing-mode:lr-tb;fill:#000000;fill-opacity:1;fill-rule:nonzero;stroke:none"
           id="text5530"><tspan
             x="0 6.3623047 9.5410156"
             y="0"
             id="tspan5528">0.4</tspan></text>
      </g>
    </g>
    <g
       id="g5532">
      <g
         id="g5534"
         clip-path="url(#clipPath5538)">
        <path
           d="M 43.871875,246.71975 H 508.12788"
           style="fill:none;stroke:#b0b0b0;stroke-width:0.8;stroke-linecap:square;stroke-linejoin:round;stroke-miterlimit:10;stroke-dasharray:none;stroke-opacity:1"
           id="path5540" />
      </g>
    </g>
    <g
       id="g5542">
      <path
         d="m 43.871875,246.71975 h -3.5"
         style="fill:#000000;fill-opacity:1;fill-rule:nonzero;stroke:#000000;stroke-width:0.8;stroke-linecap:butt;stroke-linejoin:round;stroke-miterlimit:10;stroke-dasharray:none;stroke-opacity:1"
         id="path5544" />
      <g
         id="g5546"
         transform="translate(20.871875,242.92287)">
        <text
           xml:space="preserve"
           transform="matrix(1,0,0,-1,0,0.578125)"
           style="font-variant:normal;font-weight:normal;font-size:10px;font-family:'DejaVu Sans';-inkscape-font-specification:DejaVuSans;writing-mode:lr-tb;fill:#000000;fill-opacity:1;fill-rule:nonzero;stroke:none"
           id="text5550"><tspan
             x="0 6.3623047 9.5410156"
             y="0"
             id="tspan5548">0.6</tspan></text>
      </g>
    </g>
    <g
       id="g5552">
      <g
         id="g5554"
         clip-path="url(#clipPath5558)">
        <path
           d="M 43.871875,300.63335 H 508.12788"
           style="fill:none;stroke:#b0b0b0;stroke-width:0.8;stroke-linecap:square;stroke-linejoin:round;stroke-miterlimit:10;stroke-dasharray:none;stroke-opacity:1"
           id="path5560" />
      </g>
    </g>
    <g
       id="g5562">
      <path
         d="m 43.871875,300.63335 h -3.5"
         style="fill:#000000;fill-opacity:1;fill-rule:nonzero;stroke:#000000;stroke-width:0.8;stroke-linecap:butt;stroke-linejoin:round;stroke-miterlimit:10;stroke-dasharray:none;stroke-opacity:1"
         id="path5564" />
      <g
         id="g5566"
         transform="translate(20.871875,296.83647)">
        <text
           xml:space="preserve"
           transform="matrix(1,0,0,-1,0,0.578125)"
           style="font-variant:normal;font-weight:normal;font-size:10px;font-family:'DejaVu Sans';-inkscape-font-specification:DejaVuSans;writing-mode:lr-tb;fill:#000000;fill-opacity:1;fill-rule:nonzero;stroke:none"
           id="text5570"><tspan
             x="0 6.3623047 9.2910156"
             y="0"
             id="tspan5568">0.8</tspan></text>
      </g>
    </g>
    <g
       id="g5572">
      <g
         id="g5574"
         clip-path="url(#clipPath5578)">
        <path
           d="M 43.871875,354.54695 H 508.12788"
           style="fill:none;stroke:#b0b0b0;stroke-width:0.8;stroke-linecap:square;stroke-linejoin:round;stroke-miterlimit:10;stroke-dasharray:none;stroke-opacity:1"
           id="path5580" />
      </g>
    </g>
    <g
       id="g5582">
      <path
         d="m 43.871875,354.54695 h -3.5"
         style="fill:#000000;fill-opacity:1;fill-rule:nonzero;stroke:#000000;stroke-width:0.8;stroke-linecap:butt;stroke-linejoin:round;stroke-miterlimit:10;stroke-dasharray:none;stroke-opacity:1"
         id="path5584" />
      <g
         id="g5586"
         transform="translate(20.871875,350.75007)">
        <text
           xml:space="preserve"
           transform="matrix(1,0,0,-1,0,0.578125)"
           style="font-variant:normal;font-weight:normal;font-size:10px;font-family:'DejaVu Sans';-inkscape-font-specification:DejaVuSans;writing-mode:lr-tb;fill:#000000;fill-opacity:1;fill-rule:nonzero;stroke:none"
           id="text5590"><tspan
             x="0 6.3623047 9.5410156"
             y="0"
             id="tspan5588">1.0</tspan></text>
      </g>
      <g
         id="g5592"
         transform="rotate(90,-78.4221,93.21585)">
        <text
           xml:space="preserve"
           transform="scale(1,-1)"
           style="font-variant:normal;font-weight:normal;font-size:10px;font-family:'DejaVu Sans';-inkscape-font-specification:DejaVuSans;writing-mode:lr-tb;fill:#000000;fill-opacity:1;fill-rule:nonzero;stroke:none"
           id="text5596"><tspan
             x="0 6.3200002 12.24 18.370001 21.15 27.49 33.619999 37.540001 40.32 46.439999 52.779999 55.959999 62.310001 68.650002 74.150002 79.650002 85.800003 91.010002"
             y="0"
             id="tspan5594">Evaluation Success</tspan></text>
      </g>
    </g>
    <g
       id="g5598">
      <g
         id="g5600"
         clip-path="url(#clipPath5604)">
        <path
           d="m 43.871875,84.97895 19.808256,0.539136 39.616509,4.04352 19.80826,7.817473 19.80825,10.378371 19.80826,2.56089 19.80826,15.90452 19.80825,1.34784 19.80826,4.987 19.80826,6.33485 19.80825,12.6697 39.61651,5.9305 19.80826,0.26956 19.80825,2.83047 19.80826,11.72621 19.80826,3.63916 19.80825,1.21306 19.80826,-1.75219 19.80825,6.87398 19.80826,-1.75219 19.80826,-2.02176 19.80825,-2.69568 16.86611,3.44293 v 0"
           style="fill:none;stroke:#1f77b4;stroke-width:1.5;stroke-linecap:square;stroke-linejoin:round;stroke-miterlimit:10;stroke-dasharray:none;stroke-opacity:1"
           id="path5606" />
      </g>
    </g>
    <g
       id="g5608">
      <g
         id="g5610"
         clip-path="url(#clipPath5614)">
        <path
           d="m 43.871875,84.97895 19.808256,17.92627 19.808256,24.39591 19.808253,23.04806 19.80826,48.11789 19.80825,60.78759 19.80826,36.52646 19.80826,12.40013 19.80825,1.7522 19.80826,9.97401 19.80826,4.17831 19.80825,5.52614 19.80826,0.8087 19.80825,2.02176 19.80826,11.59143 19.80825,-2.15655 19.80826,3.90874 19.80826,-0.26957 19.80825,2.96525 19.80826,-1.34784 19.80825,1.88698 19.80826,-0.94349 19.80826,0.13478 36.67436,2.99458 v 0"
           style="fill:none;stroke:#ff7f0e;stroke-width:1.5;stroke-linecap:square;stroke-linejoin:round;stroke-miterlimit:10;stroke-dasharray:none;stroke-opacity:1"
           id="path5616" />
      </g>
    </g>
    <g
       id="g5618">
      <g
         id="g5620"
         clip-path="url(#clipPath5624)">
        <path
           d="m 43.871875,84.97895 19.808256,22.50893 19.808256,55.26144 19.808253,32.34816 19.80826,66.44852 19.80825,15.36538 19.80826,-2.69568 19.80826,18.86975 19.80825,6.60442 19.80826,20.75674 19.80826,-9.16531 19.80825,10.78271 19.80826,-0.53913 19.80825,10.78272 19.80826,-7.5479 19.80825,6.46963 19.80826,0.8087 19.80826,4.71744 19.80825,1.7522 19.80826,0.67392 19.80825,-1.34785 19.80826,3.10004 19.80826,2.42611 19.80825,-0.67392 16.86611,0.68859 v 0"
           style="fill:none;stroke:#2ca02c;stroke-width:1.5;stroke-linecap:square;stroke-linejoin:round;stroke-miterlimit:10;stroke-dasharray:none;stroke-opacity:1"
           id="path5626" />
      </g>
    </g>
    <g
       id="g5628">
      <g
         id="g5630"
         clip-path="url(#clipPath5634)">
        <path
           d="M 43.871875,84.97895 H 508.12788"
           style="fill:none;stroke:#000000;stroke-width:1.5;stroke-linecap:butt;stroke-linejoin:round;stroke-miterlimit:10;stroke-dasharray:5.55, 2.4;stroke-dashoffset:0;stroke-opacity:1"
           id="path5636" />
      </g>
    </g>
    <g
       id="g5638">
      <g
         id="g5640"
         clip-path="url(#clipPath5644)">
        <path
           d="M 43.871875,97.10951 H 508.12788"
           style="fill:none;stroke:#000000;stroke-width:1.5;stroke-linecap:butt;stroke-linejoin:round;stroke-miterlimit:10;stroke-dasharray:1.5, 2.475;stroke-dashoffset:0;stroke-opacity:1"
           id="path5646" />
      </g>
    </g>
    <g
       id="g5648">
      <path
         d="m 43.871875,84.97895 v 269.568"
         style="fill:none;stroke:#000000;stroke-width:0.8;stroke-linecap:square;stroke-linejoin:miter;stroke-miterlimit:10;stroke-dasharray:none;stroke-opacity:1"
         id="path5650" />
      <path
         d="m 508.12788,84.97895 v 269.568"
         style="fill:none;stroke:#000000;stroke-width:0.8;stroke-linecap:square;stroke-linejoin:miter;stroke-miterlimit:10;stroke-dasharray:none;stroke-opacity:1"
         id="path5652" />
      <path
         d="M 43.871875,84.97895 H 508.12788"
         style="fill:none;stroke:#000000;stroke-width:0.8;stroke-linecap:square;stroke-linejoin:miter;stroke-miterlimit:10;stroke-dasharray:none;stroke-opacity:1"
         id="path5654" />
      <path
         d="M 43.871875,354.54695 H 508.12788"
         style="fill:none;stroke:#000000;stroke-width:0.8;stroke-linecap:square;stroke-linejoin:miter;stroke-miterlimit:10;stroke-dasharray:none;stroke-opacity:1"
         id="path5656" />
      <g
         id="g5658"
         transform="translate(236.92175,360.54695)">
        <text
           xml:space="preserve"
           transform="scale(1,-1)"
           style="font-variant:normal;font-weight:normal;font-size:12px;font-family:'DejaVu Sans';-inkscape-font-specification:DejaVuSans;writing-mode:lr-tb;fill:#000000;fill-opacity:1;fill-rule:nonzero;stroke:none"
           id="text5662"><tspan
             x="0 7.0328751 14.640875 20.892876 28.500875 36.876877 44.484875 52.104874 59.484875 63.504375 70.608376"
             y="0"
             id="tspan5660">PushCube-v1</tspan></text>
      </g>
      <path
         d="m 127.03894,7.2 h 297.92187 c 1.33334,0 2,0.666667 2,2 v 28.34375 c 0,1.333333 -0.66666,2 -2,2 H 127.03894 c -1.33334,0 -2,-0.666667 -2,-2 V 9.2 c 0,-1.333333 0.66666,-2 2,-2 z"
         style="fill:#ffffff;fill-opacity:0.8;fill-rule:nonzero;stroke:#cccccc;stroke-width:1;stroke-linecap:butt;stroke-linejoin:miter;stroke-miterlimit:10;stroke-dasharray:none;stroke-opacity:0.8"
         id="path5664" />
      <path
         d="m 129.03894,31.45 h 10 10"
         style="fill:none;stroke:#2ca02c;stroke-width:1.5;stroke-linecap:square;stroke-linejoin:round;stroke-miterlimit:10;stroke-dasharray:none;stroke-opacity:1"
         id="path5666" />
      <g
         id="g5668"
         transform="translate(157.03894,27.95)">
        <text
           xml:space="preserve"
           transform="scale(1,-1)"
           style="font-variant:normal;font-weight:normal;font-size:10px;font-family:'DejaVu Sans';-inkscape-font-specification:DejaVuSans;writing-mode:lr-tb;fill:#000000;fill-opacity:1;fill-rule:nonzero;stroke:none"
           id="text5672"><tspan
             x="0 6.9499998 12.98 20.68 24.290001 32.919998 39.27 45.59 48.77 56.639999 62.990002 69.139999 75.480003 82.32 88.108749"
             y="0"
             id="tspan5670">RPD-MSE OpenVLA</tspan></text>
      </g>
      <path
         d="m 129.03894,16.778125 h 10 10"
         style="fill:none;stroke:#ff7f0e;stroke-width:1.5;stroke-linecap:square;stroke-linejoin:round;stroke-miterlimit:10;stroke-dasharray:none;stroke-opacity:1"
         id="path5674" />
      <g
         id="g5676"
         transform="translate(157.03894,13.278125)">
        <text
           xml:space="preserve"
           transform="scale(1,-1)"
           style="font-variant:normal;font-weight:normal;font-size:10px;font-family:'DejaVu Sans';-inkscape-font-specification:DejaVuSans;writing-mode:lr-tb;fill:#000000;fill-opacity:1;fill-rule:nonzero;stroke:none"
           id="text5680"><tspan
             x="0 6.9499998 12.98 20.68 24.290001 32.919998 39.27 45.59 48.77 56.639999 62.139999 66.059998"
             y="0"
             id="tspan5678">RPD-MSE Octo</tspan></text>
      </g>
      <path
         d="m 272.03894,31.45 h 10 10"
         style="fill:none;stroke:#1f77b4;stroke-width:1.5;stroke-linecap:square;stroke-linejoin:round;stroke-miterlimit:10;stroke-dasharray:none;stroke-opacity:1"
         id="path5682" />
      <g
         id="g5684"
         transform="translate(300.03894,27.95)">
        <text
           xml:space="preserve"
           transform="scale(1,-1)"
           style="font-variant:normal;font-weight:normal;font-size:10px;font-family:'DejaVu Sans';-inkscape-font-specification:DejaVuSans;writing-mode:lr-tb;fill:#000000;fill-opacity:1;fill-rule:nonzero;stroke:none"
           id="text5688"><tspan
             x="0 6.0300002 12.06 19.93 23.110001 32.849998 39 45.130001"
             y="0"
             id="tspan5686">PPO mean</tspan></text>
      </g>
      <path
         d="m 272.03894,16.778125 h 10 10"
         style="fill:none;stroke:#000000;stroke-width:1.5;stroke-linecap:butt;stroke-linejoin:round;stroke-miterlimit:10;stroke-dasharray:1.5, 2.475;stroke-dashoffset:0;stroke-opacity:1"
         id="path5690" />
      <g
         id="g5692"
         transform="translate(300.03894,13.278125)">
        <text
           xml:space="preserve"
           transform="scale(1,-1)"
           style="font-variant:normal;font-weight:normal;font-size:10px;font-family:'DejaVu Sans';-inkscape-font-specification:DejaVuSans;writing-mode:lr-tb;fill:#000000;fill-opacity:1;fill-rule:nonzero;stroke:none"
           id="text5696"><tspan
             x="0 7.8699999 14.22 20.370001 26.709999 33.549999 39.338749"
             y="0"
             id="tspan5694">OpenVLA</tspan></text>
      </g>
      <path
         d="m 371.53894,31.45 h 10 10"
         style="fill:none;stroke:#000000;stroke-width:1.5;stroke-linecap:butt;stroke-linejoin:round;stroke-miterlimit:10;stroke-dasharray:5.55, 2.4;stroke-dashoffset:0;stroke-opacity:1"
         id="path5698" />
      <g
         id="g5700"
         transform="translate(399.53894,27.95)">
        <text
           xml:space="preserve"
           transform="scale(1,-1)"
           style="font-variant:normal;font-weight:normal;font-size:10px;font-family:'DejaVu Sans';-inkscape-font-specification:DejaVuSans;writing-mode:lr-tb;fill:#000000;fill-opacity:1;fill-rule:nonzero;stroke:none"
           id="text5704"><tspan
             x="0 7.8699999 13.37 17.290001"
             y="0"
             id="tspan5702">Octo</tspan></text>
      </g>
    </g>
  </g>
</svg>
